<svg version="1.1" xmlns="http://www.w3.org/2000/svg" viewBox="0 0 100 100" enable-background="new 0 0 100 100">
<g>
	<path fill="#FFFFFF" d="M50.464,4.932C75.33,4.932,95.506,25.098,95.506,50c0,24.854-20.176,45.019-45.042,45.019
		C25.55,95.019,5.374,74.854,5.374,50C5.374,25.098,25.55,4.932,50.464,4.932z"/>
	<path d="M49.927,0c13.972,0,25.892,4.883,35.711,14.6c4.69,4.737,8.305,10.107,10.698,16.113C98.779,36.768,100,43.213,100,50
		c0,6.837-1.172,13.232-3.615,19.238c-2.394,5.957-5.959,11.231-10.649,15.82c-4.886,4.834-10.405,8.496-16.61,11.085
		C62.922,98.682,56.521,100,49.927,100c-6.644,0-12.946-1.27-19.003-3.808c-6.058-2.54-11.48-6.202-16.268-10.987
		C9.868,80.421,6.253,75,3.713,68.994C1.222,62.988,0,56.642,0,50c0-6.64,1.222-12.988,3.762-19.092
		c2.541-6.104,6.204-11.572,11.041-16.357C24.329,4.834,36.053,0,49.927,0z M50.073,8.984c-11.431,0-21.055,4.004-28.822,11.963
		c-3.957,4.004-6.986,8.497-9.086,13.428C10.063,39.356,8.989,44.58,8.989,50c0,5.322,1.075,10.499,3.176,15.479
		c2.101,4.98,5.129,9.375,9.086,13.281c3.908,3.906,8.354,6.885,13.288,8.936s10.112,3.076,15.535,3.076
		c5.374,0,10.552-1.025,15.584-3.125c5.032-2.051,9.575-5.078,13.63-8.984C87.104,71.044,91.012,61.475,91.012,50
		c0-5.566-1.026-10.791-3.029-15.722c-2.052-4.932-4.982-9.375-8.842-13.233C71.08,13.037,61.407,8.984,50.073,8.984z
		 M49.487,41.699l-6.742,3.467c-0.684-1.514-1.563-2.54-2.638-3.125c-1.026-0.585-2.003-0.878-2.882-0.878
		c-4.446,0-6.693,2.929-6.693,8.837c0,2.638,0.537,4.785,1.71,6.397c1.124,1.61,2.784,2.44,4.983,2.44
		c2.931,0,4.983-1.465,6.155-4.297l6.155,3.125c-1.319,2.441-3.126,4.346-5.423,5.762c-2.345,1.368-4.885,2.1-7.718,2.1
		c-4.446,0-8.061-1.366-10.796-4.102c-2.736-2.734-4.104-6.543-4.104-11.426c0-4.785,1.368-8.544,4.152-11.377
		c2.785-2.783,6.253-4.199,10.503-4.199C42.355,34.424,46.8,36.865,49.487,41.699z M78.311,41.699l-6.596,3.467
		c-0.732-1.514-1.612-2.54-2.639-3.125c-1.074-0.585-2.051-0.878-2.979-0.878c-4.494,0-6.741,2.929-6.741,8.837
		c0,2.638,0.586,4.785,1.709,6.397c1.125,1.61,2.785,2.44,5.032,2.44c2.882,0,4.935-1.465,6.155-4.297l6.254,3.125
		c-1.368,2.441-3.225,4.346-5.57,5.762c-2.295,1.368-4.836,2.1-7.571,2.1c-4.544,0-8.158-1.366-10.845-4.102
		c-2.736-2.734-4.055-6.543-4.055-11.426c0-4.785,1.368-8.544,4.153-11.377c2.735-2.783,6.252-4.199,10.453-4.199
		C71.275,34.424,75.721,36.865,78.311,41.699z"/>
</g>
</svg>
