<svg version="1.1" xmlns="http://www.w3.org/2000/svg" viewBox="0 0 100 100" enable-background="new 0 0 100 100">
<path d="M50,0C22.386,0,0,22.386,0,50c0,27.613,22.386,50,50,50c27.613,0,50-22.387,50-50C100,22.386,77.613,0,50,0z M68.584,79.754
	C55.047,92.285,48.73,68.973,53.396,54.438c-4.137,5.115-6.642,11.779-9.452,19.916c-1.072,3.104-2.882,11.717-8.438,8.439
	c-2.511-1.48-1.118-11.949-0.675-16.541c1.164-12.08,2.457-22.109,3.712-33.414c0.537-4.838-0.11-13.558,1.688-16.876
	c1.227-2.267,8.279-3.335,9.452-1.688c0.96,1.351-0.705,9.345-1.351,13.501c-2.081,13.374-4.172,27.219-6.413,40.504
	c2.488-4.705,4.337-9.783,6.751-14.516c1.726-3.377,5.083-11.548,10.126-11.475c1.83,0.025,5.178,2.392,5.402,4.726
	c0.406,4.293-3.904,12.488-4.389,19.574c-0.242,3.533-0.47,11.277,3.037,11.813c4.178,0.642,6.067-9.998,9.452-8.102
	C74.523,71.553,70.521,77.965,68.584,79.754z"/>
</svg>
