<svg version="1.1" xmlns="http://www.w3.org/2000/svg" viewBox="0 17.282 100 82.718">
<path d="M78.125,12.5h-56.25c-5.178,0-9.375,4.197-9.375,9.375V25h75v-3.125C87.5,16.697,83.303,12.5,78.125,12.5z M61.75,6.25
	l1.379,9.863H36.872L38.25,6.25H61.75 M62.5,0h-25c-2.578,0-4.979,2.09-5.336,4.643l-1.828,13.079
	c-0.356,2.553,1.461,4.642,4.039,4.642h31.25c2.578,0,4.396-2.089,4.039-4.642L67.836,4.643C67.479,2.09,65.078,0,62.5,0L62.5,0z
	 M79.688,31.25H20.312c-3.438,0-5.995,2.802-5.684,6.225l5.118,56.302c0.311,3.423,3.378,6.224,6.815,6.224h46.875
	c3.438,0,6.506-2.801,6.815-6.224l5.118-56.302C85.684,34.052,83.125,31.25,79.688,31.25z M37.5,87.5h-9.375L25,43.75h12.5V87.5z
	 M56.25,87.5h-12.5V43.75h12.5V87.5z M71.875,87.5H62.5V43.75H75L71.875,87.5z"/>
</svg>