<svg version="1.1" xmlns="http://www.w3.org/2000/svg" viewBox="0 0 100 100" >
<path d="M99.991,86.688L73.177,59.863c3.609-5.953,5.729-12.923,5.733-20.398C78.906,17.664,61.255,0.007,39.461,0
	C17.668,0.007,0.009,17.664,0.009,39.462c0,21.784,17.659,39.443,39.452,39.443c7.479,0,14.45-2.121,20.404-5.729L86.693,100
	L99.991,86.688z M15.059,39.462c0.021-13.479,10.923-24.378,24.402-24.409c13.466,0.031,24.377,10.931,24.398,24.409
	c-0.025,13.47-10.933,24.37-24.398,24.4C25.981,63.832,15.08,52.932,15.059,39.462z"/>
</svg>